<svg xmlns="http://www.w3.org/2000/svg" viewBox="0 0 200 200" width="100%" height="100%">
  <defs>
    <radialGradient id="bg_cp" cx="50%" cy="50%" r="50%">
      <stop offset="0%" stop-color="#14213d"/><stop offset="70%" stop-color="#080e1c"/><stop offset="100%" stop-color="#03060c"/>
    </radialGradient>
    <linearGradient id="gold_cp" x1="0%" y1="0%" x2="100%" y2="100%">
      <stop offset="0%" stop-color="#fff0bd"/><stop offset="35%" stop-color="#d4af37"/><stop offset="70%" stop-color="#aa7c11"/><stop offset="100%" stop-color="#fdf3cd"/>
    </linearGradient>
    <linearGradient id="silver_cp" x1="0%" y1="0%" x2="100%" y2="100%">
      <stop offset="0%" stop-color="#ffffff"/><stop offset="50%" stop-color="#c9d2db"/><stop offset="100%" stop-color="#7a889b"/>
    </linearGradient>
    <filter id="glow_cp" x="-20%" y="-20%" width="140%" height="140%"><feDropShadow dx="0" dy="2" stdDeviation="3" flood-color="#f0c242" flood-opacity="0.45"/></filter>
  </defs>
  <circle cx="100" cy="100" r="96" fill="url(#bg_cp)"/>
  <circle cx="100" cy="100" r="95" fill="none" stroke="url(#gold_cp)" stroke-width="2.5"/>
  <circle cx="100" cy="100" r="90" fill="none" stroke="url(#gold_cp)" stroke-width="0.8" stroke-dasharray="2,3"/>
  <circle cx="100" cy="100" r="86" fill="none" stroke="url(#gold_cp)" stroke-width="1.2" opacity="0.7"/>
  <g filter="url(#glow_cp)">
    <!-- Sea-Goat Horns & Spiral Tail -->
    <path d="M52,78 C52,60 68,54 78,70 L98,110 L118,72 C128,54 144,60 144,78 C144,98 126,116 116,134 C108,148 120,158 132,150 C140,144 140,132 130,130 C122,128 116,136 122,142" fill="none" stroke="url(#gold_cp)" stroke-width="6" stroke-linecap="round"/>
    <circle cx="78" cy="70" r="5" fill="url(#silver_cp)"/>
    <circle cx="100" cy="48" r="4" fill="url(#gold_cp)"/>
  </g>
  <text x="100" y="186" text-anchor="middle" font-family="'Cinzel',serif" font-size="10" font-weight="700" fill="url(#gold_cp)" letter-spacing="2">MAKARA · CAPRICORN</text>
</svg>