<svg xmlns="http://www.w3.org/2000/svg" viewBox="0 0 200 200" width="100%" height="100%">
  <defs>
    <radialGradient id="bg_ge" cx="50%" cy="50%" r="50%">
      <stop offset="0%" stop-color="#14213d"/><stop offset="70%" stop-color="#080e1c"/><stop offset="100%" stop-color="#03060c"/>
    </radialGradient>
    <linearGradient id="gold_ge" x1="0%" y1="0%" x2="100%" y2="100%">
      <stop offset="0%" stop-color="#fff0bd"/><stop offset="35%" stop-color="#d4af37"/><stop offset="70%" stop-color="#aa7c11"/><stop offset="100%" stop-color="#fdf3cd"/>
    </linearGradient>
    <linearGradient id="silver_ge" x1="0%" y1="0%" x2="100%" y2="100%">
      <stop offset="0%" stop-color="#ffffff"/><stop offset="50%" stop-color="#c9d2db"/><stop offset="100%" stop-color="#7a889b"/>
    </linearGradient>
    <filter id="glow_ge" x="-20%" y="-20%" width="140%" height="140%"><feDropShadow dx="0" dy="2" stdDeviation="3" flood-color="#f0c242" flood-opacity="0.45"/></filter>
  </defs>
  <circle cx="100" cy="100" r="96" fill="url(#bg_ge)"/>
  <circle cx="100" cy="100" r="95" fill="none" stroke="url(#gold_ge)" stroke-width="2.5"/>
  <circle cx="100" cy="100" r="90" fill="none" stroke="url(#gold_ge)" stroke-width="0.8" stroke-dasharray="2,3"/>
  <circle cx="100" cy="100" r="86" fill="none" stroke="url(#gold_ge)" stroke-width="1.2" opacity="0.7"/>
  <g filter="url(#glow_ge)">
    <!-- Gemini Roman Pillar & Twin Stars Castor & Pollux -->
    <path d="M60,54 C80,64 120,64 140,54" stroke="url(#gold_ge)" stroke-width="5" stroke-linecap="round" fill="none"/>
    <path d="M60,146 C80,136 120,136 140,146" stroke="url(#gold_ge)" stroke-width="5" stroke-linecap="round" fill="none"/>
    <line x1="82" y1="58" x2="82" y2="142" stroke="url(#silver_ge)" stroke-width="6" stroke-linecap="round"/>
    <line x1="118" y1="58" x2="118" y2="142" stroke="url(#silver_ge)" stroke-width="6" stroke-linecap="round"/>
    <!-- Twin Star Crowns -->
    <circle cx="82" cy="74" r="5" fill="url(#gold_ge)"/>
    <circle cx="118" cy="74" r="5" fill="url(#gold_ge)"/>
    <circle cx="100" cy="100" r="6" fill="none" stroke="url(#gold_ge)" stroke-width="2"/>
    <polygon points="100,94 102,99 107,100 102,101 100,106 98,101 93,100 98,99" fill="url(#gold_ge)"/>
  </g>
  <text x="100" y="186" text-anchor="middle" font-family="'Cinzel',serif" font-size="10" font-weight="700" fill="url(#gold_ge)" letter-spacing="2">MITHUNA · GEMINI</text>
</svg>