<svg xmlns="http://www.w3.org/2000/svg" viewBox="0 0 200 200" width="100%" height="100%">
  <defs>
    <radialGradient id="bg_grad" cx="50%" cy="50%" r="50%">
      <stop offset="0%" stop-color="#021a12"/>
      <stop offset="85%" stop-color="#010a07"/>
      <stop offset="100%" stop-color="#000000"/>
    </radialGradient>
    <linearGradient id="gold_grad" x1="0%" y1="0%" x2="100%" y2="100%">
      <stop offset="0%" stop-color="#ffffff"/>
      <stop offset="25%" stop-color="#fde047"/>
      <stop offset="60%" stop-color="#eab308"/>
      <stop offset="85%" stop-color="#ca8a04"/>
      <stop offset="100%" stop-color="#fff8db"/>
    </linearGradient>
    <filter id="glow" x="-30%" y="-30%" width="160%" height="160%">
      <feGaussianBlur stdDeviation="2.5" result="blur"/>
      <feDropShadow dx="0" dy="0" stdDeviation="3.5" flood-color="#10b981" flood-opacity="0.75"/>
    </filter>
  </defs>

  <!-- Deep Cosmic Background -->
  <circle cx="100" cy="100" r="98" fill="url(#bg_grad)"/>

  <!-- Celestial Orbit & Astrological Rings -->
  <circle cx="100" cy="100" r="95" fill="none" stroke="url(#gold_grad)" stroke-width="2"/>
  <circle cx="100" cy="100" r="91" fill="none" stroke="url(#gold_grad)" stroke-width="0.75" stroke-dasharray="2,3" opacity="0.8"/>
  <circle cx="100" cy="100" r="86" fill="none" stroke="#10b981" stroke-width="0.6" stroke-dasharray="4,6" opacity="0.6"/>

  
      <!-- Taurus Emerald Nebula -->
      <radialGradient id="ta_neb" cx="50%" cy="45%" r="55%">
        <stop offset="0%" stop-color="#10b981" stop-opacity="0.5"/>
        <stop offset="40%" stop-color="#065f46" stop-opacity="0.35"/>
        <stop offset="75%" stop-color="#022c22" stop-opacity="0.2"/>
        <stop offset="100%" stop-color="#010a07" stop-opacity="0"/>
      </radialGradient>
      <circle cx="100" cy="100" r="95" fill="url(#ta_neb)"/>

      <!-- Stars & Pleiades Cluster -->
      <g fill="#fff" opacity="0.85">
        <circle cx="62" cy="50" r="1.3"/><circle cx="66" cy="48" r="1"/><circle cx="70" cy="52" r="1.2"/>
        <circle cx="64" cy="55" r="0.9"/><circle cx="69" cy="57" r="1.4"/><circle cx="74" cy="54" r="1.1"/>
        <circle cx="165" cy="40" r="1"/><circle cx="35" cy="145" r="1.2"/><circle cx="160" cy="150" r="1.4"/>
      </g>

      <!-- Aldebaran Red Giant Diamond -->
      <g transform="translate(132, 72)" filter="url(#glow)">
        <polygon points="0,-7 2,-2 7,0 2,2 0,7 -2,2 -7,0 -2,-2" fill="#fff"/>
        <circle cx="0" cy="0" r="2.5" fill="#f59e0b"/>
      </g>

      <!-- Celestial Cosmic Bull -->
      <g filter="url(#glow)">
        <!-- Sweeping Emerald Horns -->
        <path d="M42,50 C48,84 76,96 98,96 C120,96 148,84 154,50 C142,58 128,68 98,68 C68,68 54,58 42,50 Z" fill="url(#gold_grad)"/>
        <path d="M46,54 C54,80 78,90 98,90 C118,90 142,80 150,54" fill="none" stroke="#10b981" stroke-width="2.5" stroke-linecap="round"/>

        <!-- Bull Head & Forehead Crest -->
        <ellipse cx="98" cy="116" rx="28" ry="26" fill="#032b1f" stroke="url(#gold_grad)" stroke-width="2"/>
        <circle cx="98" cy="116" r="16" fill="#01140e" stroke="#10b981" stroke-width="1.5"/>

        <!-- Glowing Eyes -->
        <ellipse cx="84" cy="112" rx="3.5" ry="2" fill="#fff" filter="url(#glow)"/>
        <ellipse cx="112" cy="112" rx="3.5" ry="2" fill="#fff" filter="url(#glow)"/>

        <!-- Snout Ring -->
        <ellipse cx="98" cy="132" rx="8" ry="5" fill="#021a12" stroke="url(#gold_grad)" stroke-width="1.2"/>
        <path d="M93,134 C93,142 103,142 103,134" fill="none" stroke="url(#gold_grad)" stroke-width="2"/>

        <!-- Star of Taurus -->
        <polygon points="98,104 101,111 108,114 101,117 98,124 95,117 88,114 95,111" fill="url(#gold_grad)"/>
      </g>
    

  <!-- Astrological Glyph Crest at Top -->
  <g transform="translate(100, 26)">
    <circle cx="0" cy="0" r="9" fill="#021a12" stroke="url(#gold_grad)" stroke-width="1"/>
    <text x="0" y="4" text-anchor="middle" font-family="'Cinzel', serif" font-size="11" font-weight="700" fill="#10b981">♉</text>
  </g>

  <!-- Name Label at Bottom -->
  <text x="100" y="186" text-anchor="middle" font-family="'Cinzel', 'Marcellus', serif" font-size="9" font-weight="700" fill="url(#gold_grad)" letter-spacing="2">VRISHABHA · TAURUS</text>
</svg>